<?xml version="1.0" standalone="no"?><!DOCTYPE svg PUBLIC "-//W3C//DTD SVG 1.1//EN" "http://www.w3.org/Graphics/SVG/1.1/DTD/svg11.dtd"><svg t="1574503724330" class="icon" viewBox="0 0 1024 1024" version="1.1" xmlns="http://www.w3.org/2000/svg" p-id="2317" xmlns:xlink="http://www.w3.org/1999/xlink" width="200" height="200"><defs><style type="text/css"></style></defs><path d="M690.176 324.608c21.504 0 39.936-17.408 39.936-38.912V109.056c0-21.504-18.432-38.912-39.936-38.912-21.504 0-38.912 17.408-38.912 38.912v176.64c0 21.504 17.408 38.912 38.912 38.912z m-77.824-156.16H415.744v58.88h196.608V168.448z m229.888 0h-73.216v58.368H844.8c22.528 0 40.96 18.944 40.96 40.96v135.68H142.336V267.776c0-22.528 18.944-40.96 40.96-40.96h76.288V168.448H186.88c-56.32 0-102.912 46.592-102.912 102.912v597.504c0 56.832 44.544 102.912 100.864 102.912h657.408c56.32 0 102.912-46.08 102.912-102.912V271.36c0-56.832-46.08-102.912-102.912-102.912z m44.032 702.976c0 22.528-18.944 40.96-40.96 40.96H183.296c-22.528 0-40.96-18.944-40.96-40.96v-409.6h744.448v409.6h-0.512zM297.984 638.464c32.768 0 58.88-26.624 58.88-58.88 0-32.768-26.112-58.88-58.88-58.88s-58.88 26.624-58.88 58.88 26.624 58.88 58.88 58.88z m215.552 0c32.768 0 58.88-26.624 58.88-58.88 0-32.768-26.624-58.88-58.88-58.88-32.768 0-58.88 26.624-58.88 58.88s26.624 58.88 58.88 58.88zM296.96 854.016c32.768 0 58.88-26.624 58.88-58.88 0-32.768-26.112-58.88-58.88-58.88s-58.88 26.624-58.88 58.88c0 32.768 26.112 58.88 58.88 58.88z m216.576 0c32.768 0 58.88-26.624 58.88-58.88 0-32.768-26.624-58.88-58.88-58.88-32.768 0-58.88 26.624-58.88 58.88 0 32.768 26.624 58.88 58.88 58.88z m215.552-215.552c32.768 0 58.88-26.624 58.88-58.88 0-32.768-26.624-58.88-58.88-58.88-32.768 0-58.88 26.624-58.88 58.88s26.624 58.88 58.88 58.88zM337.408 324.608c21.504 0 39.936-17.408 39.936-38.912V109.056c0-21.504-18.432-38.912-39.936-38.912-21.504 0-38.912 17.408-38.912 38.912v176.64c0 21.504 17.408 38.912 38.912 38.912z" p-id="2318"></path></svg>