<?xml version="1.0" standalone="no"?><!DOCTYPE svg PUBLIC "-//W3C//DTD SVG 1.1//EN" "http://www.w3.org/Graphics/SVG/1.1/DTD/svg11.dtd"><svg t="1574511560084" class="icon" viewBox="0 0 1024 1024" version="1.1" xmlns="http://www.w3.org/2000/svg" p-id="7706" xmlns:xlink="http://www.w3.org/1999/xlink" width="200" height="200"><defs><style type="text/css"></style></defs><path d="M870.799806 391.43611c-19.614733-46.37419-47.689139-88.017636-83.444481-123.771954-35.755342-35.754319-77.397764-63.828724-123.770931-83.444481-48.027853-20.313651-99.027387-30.613228-151.586441-30.613228S408.438343 163.906024 360.412536 184.219675c-46.373167 19.61371-88.016613 47.689139-123.770931 83.444481-35.754319 35.755342-63.827701 77.397764-83.444481 123.771954-20.313651 48.024783-30.613228 99.027387-30.613228 151.585417 0 52.55803 10.299577 103.559611 30.613228 151.585417 19.614733 46.37419 47.689139 88.017636 83.444481 123.771955 35.755342 35.754319 77.397764 63.828724 123.770931 83.444481 48.027853 20.313651 99.027387 30.613228 151.586441 30.613228 52.559053 0 103.559611-10.299577 151.58644-30.613228 46.373167-19.61371 88.016613-47.689139 123.770931-83.444481 35.754319-35.755342 63.827701-77.397764 83.444481-123.771955 20.313651-48.025807 30.613228-99.027387 30.613228-151.585417-0.001023-52.559053-10.301623-103.560634-30.614251-151.585417zM511.997953 879.381252c-185.470155 0-336.360747-150.891615-336.360747-336.360748s150.890592-336.360747 336.360747-336.360747 336.360747 150.891615 336.360748 336.360747-150.890592 336.360747-336.360748 336.360748z" fill="" p-id="7707"></path><path d="M695.364191 325.588403L561.741891 459.20968c-13.280468-7.202029-28.482705-11.296277-44.62229-11.296277-51.783387 0-93.912903 42.128493-93.912903 93.912903 0 51.783387 42.128493 93.912903 93.912903 93.912903 51.78441 0 93.913926-42.128493 93.913926-93.912903 0-16.391319-4.226255-31.813566-11.639084-45.240367L732.878596 363.102808c10.358929-10.358929 10.358929-27.155477 0-37.514405-10.356882-10.358929-27.154453-10.357905-37.514405 0zM517.120624 603.907223c-34.231639 0-62.079894-27.849278-62.079894-62.079894s27.849278-62.079894 62.079894-62.079894c34.232662 0 62.080917 27.849278 62.080917 62.079894s-27.849278 62.079894-62.080917 62.079894zM408.895761 115.276467h199.482287c14.650675 0 26.527167-11.876492 26.527166-26.527167s-11.876492-26.527167-26.527166-26.527167H408.895761c-14.650675 0-26.527167 11.876492-26.527167 26.527167s11.878538 26.527167 26.527167 26.527167z" fill="" p-id="7708"></path></svg>