<?xml version="1.0" standalone="no"?><!DOCTYPE svg PUBLIC "-//W3C//DTD SVG 1.1//EN" "http://www.w3.org/Graphics/SVG/1.1/DTD/svg11.dtd"><svg t="1574346825324" class="icon" viewBox="0 0 1024 1024" version="1.1" xmlns="http://www.w3.org/2000/svg" p-id="1927" xmlns:xlink="http://www.w3.org/1999/xlink" width="200" height="200"><defs><style type="text/css"></style></defs><path d="M426.666667 597.333333h170.666666v298.666667h-170.666666z" p-id="1928"></path><path d="M871.253333 434.346667L542.293333 98.133333a42.666667 42.666667 0 0 0-60.586666 0l-328.96 336.64A85.333333 85.333333 0 0 0 128 495.786667V853.333333a85.333333 85.333333 0 0 0 80.64 85.333334H341.333333v-384a42.666667 42.666667 0 0 1 42.666667-42.666667h256a42.666667 42.666667 0 0 1 42.666667 42.666667v384h132.693333A85.333333 85.333333 0 0 0 896 853.333333v-357.546666a88.32 88.32 0 0 0-24.746667-61.44z" p-id="1929"></path></svg>