<?xml version="1.0" standalone="no"?><!DOCTYPE svg PUBLIC "-//W3C//DTD SVG 1.1//EN" "http://www.w3.org/Graphics/SVG/1.1/DTD/svg11.dtd"><svg t="1574511538426" class="icon" viewBox="0 0 1024 1024" version="1.1" xmlns="http://www.w3.org/2000/svg" p-id="7343" xmlns:xlink="http://www.w3.org/1999/xlink" width="200" height="200"><defs><style type="text/css"></style></defs><path d="M828.401551 929.06705h-172.580245V785.250861h86.292169v-57.527089h-86.292169V612.670616h86.292169v-57.526066h-86.292169V440.092417h86.292169v-57.526066h-86.292169V267.512172h86.292169v-57.525043h-86.292169V66.17094h172.579222v862.89611h0.001023zM598.295239 986.593117h287.632378V8.645897H598.295239v977.94722zM224.362505 8.645897c-47.583643 0-86.291146 38.70648-86.291146 86.288076v729.164584l143.815166 191.25657 143.843818-191.25657V94.933973c0-47.581597-38.734109-86.288076-86.288076-86.288076H224.362505z m0 57.525043h115.079762c15.841772 0 28.735404 12.893632 28.735404 28.763033v57.527089H195.626078V94.933973c0-15.870424 12.86498-28.763033 28.736427-28.763033zM195.626078 756.487828V209.988152h172.551593V756.487828H195.626078z m8.033961 57.52402h156.457065L281.886525 911.764l-78.226486-97.752152z" p-id="7344"></path></svg>